<?xml version="1.0" encoding="UTF-8"?>
<svg viewBox="0 0 53 24" xmlns="http://www.w3.org/2000/svg">
<path d="m15.724 16.41c-5.4844 0-9.931-4.4466-9.931-9.931 0-1.6138 0.39311-3.1324 1.0759-4.4789-3.9848 1.291-6.869 5.0292-6.869 9.4444 0 5.4844 4.4466 9.931 9.931 9.931 3.8715 0 7.2166-2.2195 8.8552-5.4521-0.965 0.3128-1.9928 0.4866-3.0621 0.4866z" fill="#0D1117"/>
<path d="m39.723 1.0095e-4c-0.2192 0.0034266-0.4281 0.093683-0.5809 0.25096-0.1527 0.15728-0.2368 0.36873-0.2338 0.58794v2.4828c-0.0015 0.10967 0.0187 0.21854 0.0596 0.32031s0.1016 0.19439 0.1786 0.27249 0.1688 0.14012 0.27 0.18245c0.1011 0.04233 0.2097 0.06412 0.3194 0.06412s0.2182-0.02179 0.3194-0.06412 0.193-0.10435 0.27-0.18245 0.1377-0.17072 0.1786-0.27249 0.0611-0.21064 0.0596-0.32031v-2.4828c0.0015-0.11072-0.0192-0.22062-0.0609-0.3232-0.0418-0.10257-0.1037-0.19573-0.182-0.27395-0.0784-0.078225-0.1717-0.13993-0.2743-0.18145-0.1027-0.041526-0.2126-0.062031-0.3233-0.060302zm-7.6035 3.1552c-0.1645 3.7e-4 -0.3251 0.04974-0.4615 0.14182-0.1363 0.09208-0.242 0.22269-0.3038 0.37515-0.0617 0.15247-0.0767 0.31988-0.0428 0.48086 0.0338 0.16099 0.1148 0.30824 0.2327 0.42297l1.7554 1.7554c0.0762 0.07942 0.1676 0.14283 0.2686 0.18652 0.1011 0.04368 0.2099 0.06676 0.32 0.06788 0.1101 0.00111 0.2193-0.01975 0.3212-0.06136 0.102-0.04162 0.1946-0.10316 0.2724-0.18102 0.0779-0.07786 0.1394-0.17047 0.1811-0.27241 0.0416-0.10194 0.0624-0.21115 0.0613-0.32126-0.0011-0.1101-0.0242-0.21887-0.0679-0.31994-0.0436-0.10107-0.1071-0.19241-0.1865-0.26867l-1.7554-1.7554c-0.0773-0.07947-0.1698-0.1426-0.2719-0.18564-0.1022-0.04304-0.212-0.06511-0.3229-0.0649zm15.207 0c-0.215 0.00641-0.4191 0.09627-0.569 0.25054l-1.7553 1.7554c-0.0795 0.07626-0.1429 0.1676-0.1866 0.26867-0.0436 0.10107-0.0667 0.20984-0.0678 0.31994-0.0012 0.1101 0.0197 0.21932 0.0613 0.32126s0.1032 0.19455 0.181 0.2724c0.0779 0.07786 0.1705 0.1394 0.2724 0.18102 0.102 0.04162 0.2112 0.06248 0.3213 0.06136s0.2189-0.02419 0.3199-0.06788c0.1011-0.04368 0.1925-0.10709 0.2687-0.18651l1.7554-1.7554c0.1196-0.11624 0.2013-0.26591 0.2343-0.42937 0.0331-0.16346 0.016-0.33311-0.049-0.4867-0.065-0.15358-0.1749-0.28395-0.3152-0.37402-0.1404-0.09006-0.3047-0.13562-0.4714-0.13071zm-7.5905 2.6492c-1.5364 0-3.0099 0.61034-4.0964 1.6968-1.0864 1.0864-1.6967 2.5599-1.6967 4.0963s0.6103 3.0099 1.6967 4.0964c1.0865 1.0864 2.56 1.6967 4.0964 1.6967s3.0099-0.6103 4.0963-1.6967c1.0864-1.0865 1.6968-2.56 1.6968-4.0964s-0.6104-3.0099-1.6968-4.0963-2.5599-1.6968-4.0963-1.6968zm-10.759 4.9655c-0.1097-0.0015-0.2186 0.0187-0.3203 0.0596-0.1018 0.0409-0.1944 0.1016-0.2725 0.1786-0.0781 0.0771-0.1401 0.1688-0.1825 0.27-0.0423 0.1012-0.0641 0.2097-0.0641 0.3194s0.0218 0.2183 0.0641 0.3195c0.0424 0.1011 0.1044 0.1929 0.1825 0.2699s0.1707 0.1377 0.2725 0.1786c0.1017 0.0409 0.2106 0.0612 0.3203 0.0596h2.4827c0.1097 0.0016 0.2186-0.0187 0.3203-0.0596 0.1018-0.0409 0.1944-0.1016 0.2725-0.1786s0.1401-0.1688 0.1825-0.2699c0.0423-0.1012 0.0641-0.2098 0.0641-0.3195s-0.0218-0.2182-0.0641-0.3194c-0.0424-0.1012-0.1044-0.1929-0.1825-0.27-0.0781-0.077-0.1707-0.1377-0.2725-0.1786-0.1017-0.0409-0.2106-0.0611-0.3203-0.0596h-2.4827zm19.034 0c-0.1097-0.0015-0.2186 0.0187-0.3204 0.0596-0.1017 0.0409-0.1944 0.1016-0.2725 0.1786-0.0781 0.0771-0.1401 0.1688-0.1824 0.27s-0.0641 0.2097-0.0641 0.3194 0.0218 0.2183 0.0641 0.3195c0.0423 0.1011 0.1043 0.1929 0.1824 0.2699s0.1708 0.1377 0.2725 0.1786c0.1018 0.0409 0.2107 0.0612 0.3204 0.0596h2.4827c0.1097 0.0016 0.2186-0.0187 0.3203-0.0596 0.1018-0.0409 0.1944-0.1016 0.2725-0.1786s0.1401-0.1688 0.1825-0.2699c0.0423-0.1012 0.0641-0.2098 0.0641-0.3195s-0.0218-0.2182-0.0641-0.3194c-0.0424-0.1012-0.1044-0.1929-0.1825-0.27-0.0781-0.077-0.1707-0.1377-0.2725-0.1786-0.1017-0.0409-0.2106-0.0611-0.3203-0.0596h-2.4827zm-14.143 5.8432c-0.215 0.0065-0.419 0.0963-0.5689 0.2506l-1.7554 1.7554c-0.0794 0.0762-0.1429 0.1676-0.1865 0.2686-0.0437 0.1011-0.0668 0.2099-0.0679 0.32s0.0197 0.2193 0.0613 0.3212c0.0417 0.102 0.1032 0.1946 0.1811 0.2724 0.0778 0.0779 0.1704 0.1394 0.2724 0.1811 0.1019 0.0416 0.2111 0.0624 0.3212 0.0613s0.2189-0.0242 0.32-0.0679c0.101-0.0436 0.1924-0.107 0.2686-0.1865l1.7554-1.7554c0.1196-0.1162 0.2013-0.2659 0.2344-0.4293 0.033-0.1635 0.016-0.3331-0.049-0.4867s-0.1749-0.284-0.3153-0.374c-0.1404-0.0901-0.3047-0.1357-0.4714-0.1308zm11.711 0c-0.1646 1e-4 -0.3255 0.0492-0.4621 0.1412-0.1365 0.0919-0.2426 0.2225-0.3045 0.3751-0.062 0.1525-0.077 0.32-0.0433 0.4812 0.0338 0.1611 0.1149 0.3085 0.2329 0.4233l1.7553 1.7554c0.0763 0.0795 0.1676 0.1429 0.2687 0.1865 0.1011 0.0437 0.2099 0.0668 0.32 0.0679s0.2193-0.0197 0.3212-0.0613c0.1019-0.0417 0.1946-0.1032 0.2724-0.1811 0.0779-0.0778 0.1394-0.1704 0.181-0.2724 0.0416-0.1019 0.0625-0.2111 0.0614-0.3212s-0.0242-0.2189-0.0679-0.32c-0.0437-0.101-0.1071-0.1924-0.1865-0.2686l-1.7554-1.7554c-0.0771-0.0793-0.1693-0.1423-0.2712-0.1853-0.1019-0.0431-0.2114-0.0652-0.322-0.0653zm-5.8561 2.4214c-0.2192 0.0034-0.4281 0.0937-0.5809 0.2509-0.1527 0.1573-0.2368 0.3688-0.2338 0.588v2.4827c-0.0015 0.1097 0.0187 0.2186 0.0596 0.3204 0.0409 0.1017 0.1016 0.1943 0.1786 0.2724s0.1688 0.1402 0.27 0.1825c0.1011 0.0423 0.2097 0.0641 0.3194 0.0641s0.2182-0.0218 0.3194-0.0641 0.193-0.1044 0.27-0.1825 0.1377-0.1707 0.1786-0.2724c0.0409-0.1018 0.0611-0.2107 0.0596-0.3204v-2.4827c0.0015-0.1107-0.0192-0.2206-0.0609-0.3232-0.0418-0.1026-0.1037-0.1957-0.182-0.274-0.0784-0.0782-0.1717-0.1399-0.2743-0.1814-0.1027-0.0415-0.2126-0.062-0.3233-0.0603z" fill="#C8D1D9"/>
</svg>
